<svg xmlns="http://www.w3.org/2000/svg" width="35" height="35" fill="none"><g clip-path="url(#a)"><path fill="#22253B" d="M34.874 17.437c0 9.63-7.807 17.437-17.437 17.437S0 27.067 0 17.437 7.807 0 17.437 0s17.437 7.807 17.437 17.437Z"/><path fill="#fff" fill-rule="evenodd" d="M16.85 22.958h1.115s.337-.037.509-.222c.158-.17.153-.489.153-.489s-.022-1.492.673-1.712c.685-.216 1.564 1.443 2.496 2.08.704.483 1.24.378 1.24.378l2.492-.035s1.303-.08.685-1.102c-.05-.084-.36-.757-1.852-2.139-1.563-1.446-1.354-1.212.529-3.714 1.146-1.524 1.604-2.454 1.46-2.852-.136-.38-.979-.28-.979-.28l-2.805.018s-.208-.028-.363.064c-.15.09-.247.3-.247.3s-.444 1.18-1.037 2.182c-1.249 2.116-1.748 2.228-1.953 2.096-.475-.306-.356-1.23-.356-1.886 0-2.05.312-2.906-.607-3.127-.305-.074-.53-.122-1.31-.13-1-.01-1.848.003-2.328.238-.32.155-.565.503-.415.523.185.025.605.113.828.415.287.39.277 1.267.277 1.267s.165 2.413-.386 2.713c-.378.206-.897-.214-2.01-2.134-.571-.983-1.002-2.07-1.002-2.07s-.083-.203-.231-.312c-.18-.131-.432-.173-.432-.173l-2.666.017s-.4.011-.547.185c-.13.154-.01.474-.01.474s2.087 4.87 4.45 7.324c2.168 2.25 4.629 2.103 4.629 2.103Z" clip-rule="evenodd"/></g><defs><clipPath id="a"><path fill="#fff" d="M0 0h35v35H0z"/></clipPath></defs></svg>