<svg xmlns="http://www.w3.org/2000/svg" width="35" height="35" fill="none"><g clip-path="url(#a)"><path fill="#22253B" d="M34.94 17.463c0 9.645-7.819 17.463-17.463 17.463-9.645 0-17.463-7.818-17.463-17.463C.014 7.82 7.832 0 17.477 0 27.12 0 34.94 7.819 34.94 17.463Z"/><path fill="#fff" d="M26.473 11.67c-.71-.844-2.02-1.188-4.52-1.188h-9.081c-2.56 0-3.891.367-4.598 1.264-.689.876-.689 2.166-.689 3.951V19.1c0 3.458.818 5.214 5.287 5.214h9.08c2.17 0 3.371-.303 4.15-1.048.797-.763 1.137-2.01 1.137-4.166v-3.403c0-1.883-.053-3.18-.766-4.027Zm-6.27 6.198-4.123 2.155a.633.633 0 0 1-.928-.562v-4.296a.634.634 0 0 1 .926-.563l4.123 2.142a.634.634 0 0 1 .002 1.124Z"/></g><defs><clipPath id="a"><path fill="#fff" d="M0 0h35v35H0z"/></clipPath></defs></svg>